<?xml version="1.0" encoding="UTF-8"?>
<!--
  Hand-curated icon sprite for rapido.
  Icons: Lucide v0.265.0 (MIT) - https://github.com/lucide-icons/lucide/tree/v0.265.0/icons
  Stroke / fill attributes are set by the consuming <svg> via brand.css.
  Note: "edit" sourced from Lucide pencil.svg (no edit.svg in this release).
-->
<svg xmlns="http://www.w3.org/2000/svg" style="display:none">
  <symbol id="menu" viewBox="0 0 24 24"><line x1="4" x2="20" y1="12" y2="12" /> <line x1="4" x2="20" y1="6" y2="6" /> <line x1="4" x2="20" y1="18" y2="18" /></symbol>
  <symbol id="x" viewBox="0 0 24 24"><path d="M18 6 6 18" /> <path d="m6 6 12 12" /></symbol>
  <symbol id="plus" viewBox="0 0 24 24"><path d="M5 12h14" /> <path d="M12 5v14" /></symbol>
  <symbol id="edit" viewBox="0 0 24 24"><path d="M17 3a2.85 2.83 0 1 1 4 4L7.5 20.5 2 22l1.5-5.5Z" /> <path d="m15 5 4 4" /></symbol>
  <symbol id="trash" viewBox="0 0 24 24"><path d="M3 6h18" /> <path d="M19 6v14c0 1-1 2-2 2H7c-1 0-2-1-2-2V6" /> <path d="M8 6V4c0-1 1-2 2-2h4c1 0 2 1 2 2v2" /></symbol>
  <symbol id="check" viewBox="0 0 24 24"><polyline points="20 6 9 17 4 12" /></symbol>
  <symbol id="alert" viewBox="0 0 24 24"><circle cx="12" cy="12" r="10" /> <line x1="12" x2="12" y1="8" y2="12" /> <line x1="12" x2="12.01" y1="16" y2="16" /></symbol>
  <symbol id="chevron-down" viewBox="0 0 24 24"><path d="m6 9 6 6 6-6" /></symbol>
  <symbol id="search" viewBox="0 0 24 24"><circle cx="11" cy="11" r="8" /> <path d="m21 21-4.3-4.3" /></symbol>
  <symbol id="user" viewBox="0 0 24 24"><path d="M19 21v-2a4 4 0 0 0-4-4H9a4 4 0 0 0-4 4v2" /> <circle cx="12" cy="7" r="4" /></symbol>
  <symbol id="building" viewBox="0 0 24 24"><rect width="16" height="20" x="4" y="2" rx="2" ry="2" /> <path d="M9 22v-4h6v4" /> <path d="M8 6h.01" /> <path d="M16 6h.01" /> <path d="M12 6h.01" /> <path d="M12 10h.01" /> <path d="M12 14h.01" /> <path d="M16 10h.01" /> <path d="M16 14h.01" /> <path d="M8 10h.01" /> <path d="M8 14h.01" /></symbol>
  <symbol id="map-pin" viewBox="0 0 24 24"><path d="M20 10c0 6-8 12-8 12s-8-6-8-12a8 8 0 0 1 16 0Z" /> <circle cx="12" cy="10" r="3" /></symbol>
  <symbol id="settings" viewBox="0 0 24 24"><path d="M12.22 2h-.44a2 2 0 0 0-2 2v.18a2 2 0 0 1-1 1.73l-.43.25a2 2 0 0 1-2 0l-.15-.08a2 2 0 0 0-2.73.73l-.22.38a2 2 0 0 0 .73 2.73l.15.1a2 2 0 0 1 1 1.72v.51a2 2 0 0 1-1 1.74l-.15.09a2 2 0 0 0-.73 2.73l.22.38a2 2 0 0 0 2.73.73l.15-.08a2 2 0 0 1 2 0l.43.25a2 2 0 0 1 1 1.73V20a2 2 0 0 0 2 2h.44a2 2 0 0 0 2-2v-.18a2 2 0 0 1 1-1.73l.43-.25a2 2 0 0 1 2 0l.15.08a2 2 0 0 0 2.73-.73l.22-.39a2 2 0 0 0-.73-2.73l-.15-.08a2 2 0 0 1-1-1.74v-.5a2 2 0 0 1 1-1.74l.15-.09a2 2 0 0 0 .73-2.73l-.22-.38a2 2 0 0 0-2.73-.73l-.15.08a2 2 0 0 1-2 0l-.43-.25a2 2 0 0 1-1-1.73V4a2 2 0 0 0-2-2z" /> <circle cx="12" cy="12" r="3" /></symbol>
  <symbol id="log-out" viewBox="0 0 24 24"><path d="M9 21H5a2 2 0 0 1-2-2V5a2 2 0 0 1 2-2h4" /> <polyline points="16 17 21 12 16 7" /> <line x1="21" x2="9" y1="12" y2="12" /></symbol>
  <symbol id="eye" viewBox="0 0 24 24"><path d="M2 12s3-7 10-7 10 7 10 7-3 7-10 7-10-7-10-7Z" /> <circle cx="12" cy="12" r="3" /></symbol>
  <symbol id="eye-off" viewBox="0 0 24 24"><path d="M9.88 9.88a3 3 0 1 0 4.24 4.24" /> <path d="M10.73 5.08A10.43 10.43 0 0 1 12 5c7 0 10 7 10 7a13.16 13.16 0 0 1-1.67 2.68" /> <path d="M6.61 6.61A13.526 13.526 0 0 0 2 12s3 7 10 7a9.74 9.74 0 0 0 5.39-1.61" /> <line x1="2" x2="22" y1="2" y2="22" /></symbol>
  <symbol id="mail" viewBox="0 0 24 24"><rect width="20" height="16" x="2" y="4" rx="2" /> <path d="m22 7-8.97 5.7a1.94 1.94 0 0 1-2.06 0L2 7" /></symbol>
  <symbol id="lock" viewBox="0 0 24 24"><rect width="18" height="11" x="3" y="11" rx="2" ry="2" /> <path d="M7 11V7a5 5 0 0 1 10 0v4" /></symbol>
  <symbol id="calendar" viewBox="0 0 24 24"><rect width="18" height="18" x="3" y="4" rx="2" ry="2" /> <line x1="16" x2="16" y1="2" y2="6" /> <line x1="8" x2="8" y1="2" y2="6" /> <line x1="3" x2="21" y1="10" y2="10" /></symbol>
  <symbol id="copy" viewBox="0 0 24 24"><rect width="14" height="14" x="8" y="8" rx="2" ry="2" /> <path d="M4 16c-1.1 0-2-.9-2-2V4c0-1.1.9-2 2-2h10c1.1 0 2 .9 2 2" /></symbol>
  <symbol id="refresh" viewBox="0 0 24 24"><path d="M3 12a9 9 0 0 1 9-9 9.75 9.75 0 0 1 6.74 2.74L21 8" /> <path d="M21 3v5h-5" /> <path d="M21 12a9 9 0 0 1-9 9 9.75 9.75 0 0 1-6.74-2.74L3 16" /> <path d="M8 16H3v5" /></symbol>
  <symbol id="more-vertical" viewBox="0 0 24 24"><circle cx="12" cy="12" r="1" /> <circle cx="12" cy="5" r="1" /> <circle cx="12" cy="19" r="1" /></symbol>
  <symbol id="arrow-left" viewBox="0 0 24 24"><path d="m12 19-7-7 7-7" /> <path d="M19 12H5" /></symbol>
  <symbol id="arrow-right" viewBox="0 0 24 24"><path d="M5 12h14" /> <path d="m12 5 7 7-7 7" /></symbol>
  <symbol id="info" viewBox="0 0 24 24"><circle cx="12" cy="12" r="10" /> <path d="M12 16v-4" /> <path d="M12 8h.01" /></symbol>
</svg>
